<svg xmlns="http://www.w3.org/2000/svg" xmlns:xlink="http://www.w3.org/1999/xlink" width="500" zoomAndPan="magnify" viewBox="0 0 375 374.999991" height="500" preserveAspectRatio="xMidYMid meet" version="1.0"><rect x="-37.5" width="450" fill="#ffffff" y="-37.499999" height="449.999989" fill-opacity="1"/><rect x="-37.5" width="450" fill="#ffffff" y="-37.499999" height="449.999989" fill-opacity="1"/><rect x="-37.5" width="450" fill="#ffffff" y="-37.499999" height="449.999989" fill-opacity="1"/><path fill="#000000" d="M 129.386719 310.613281 L 122.472656 319.222656 C 117.171875 325.828125 111.566406 331.34375 105.632812 335.265625 C 89.558594 345.882812 71.566406 345.273438 51.980469 323.910156 C 34.050781 304.355469 34.398438 287.003906 44.847656 271.789062 C 45.609375 270.679688 46.417969 269.589844 47.289062 268.496094 L 60.746094 251.734375 C 52.023438 252.914062 43.820312 253.019531 36.515625 251.648438 C 18.367188 248.246094 5.871094 236.191406 4.738281 209.6875 C 4.105469 194.320312 7.265625 183.417969 13.222656 175.984375 L 42.402344 139.605469 C 35.074219 126.417969 35.46875 111.703125 48.53125 95.417969 L 80.179688 55.988281 C 81.226562 54.65625 82.382812 53.328125 83.605469 51.976562 C 103.734375 30.023438 122.144531 29.9375 138.546875 41.492188 C 139.964844 42.492188 141.359375 43.582031 142.753906 44.761719 L 167.445312 14.003906 C 167.574219 13.828125 167.726562 13.65625 167.859375 13.5 C 167.902344 13.4375 167.945312 13.394531 167.988281 13.328125 C 168.339844 12.933594 168.6875 12.542969 169.058594 12.148438 C 169.082031 12.128906 169.101562 12.105469 169.101562 12.085938 C 176.472656 4.324219 188.253906 0.03125 205.984375 0.773438 C 232.332031 1.882812 244.394531 14.242188 247.90625 32.203125 C 249.671875 41.339844 249.105469 51.910156 247.011719 63.136719 L 252.136719 56.75 C 252.246094 56.617188 252.332031 56.488281 252.441406 56.355469 C 252.464844 56.335938 252.507812 56.292969 252.527344 56.269531 C 257.457031 50.1875 262.714844 45.066406 268.320312 41.359375 C 283.457031 31.375 300.621094 31.3125 319.859375 49.03125 C 340.46875 67.996094 341.667969 85.457031 332.070312 101.109375 C 330.9375 102.984375 329.628906 104.835938 328.167969 106.644531 L 314.101562 124.195312 C 324.242188 122.820312 333.707031 122.820312 341.863281 124.78125 C 359.726562 129.121094 371.199219 142.328125 370 170.273438 C 369.457031 183.332031 366.140625 192.878906 360.730469 199.617188 C 351.179688 211.515625 341.625 223.417969 332.070312 235.320312 C 339.246094 247.027344 340.382812 259.734375 331.898438 273.316406 C 331.875 273.359375 331.832031 273.402344 331.808594 273.46875 C 331.503906 273.949219 331.179688 274.425781 330.851562 274.929688 C 330.785156 275.039062 330.699219 275.148438 330.609375 275.277344 C 330.328125 275.691406 330.023438 276.128906 329.714844 276.542969 C 329.609375 276.695312 329.5 276.824219 329.410156 276.976562 C 329.085938 277.390625 328.757812 277.828125 328.40625 278.261719 C 328.320312 278.371094 328.210938 278.503906 328.125 278.632812 C 328.082031 278.679688 328.058594 278.722656 328.039062 278.765625 L 296.390625 318.175781 C 294.101562 321.03125 291.394531 323.910156 288.234375 326.832031 C 269.476562 344.09375 252.679688 344.464844 237.804688 335.199219 C 235.710938 333.914062 233.664062 332.410156 231.675781 330.730469 L 208.710938 359.351562 C 202.015625 367.703125 191.042969 372.933594 174.335938 373.632812 C 145.589844 374.851562 132.417969 362.730469 128.492188 344.050781 C 126.460938 334.328125 127.09375 322.839844 129.386719 310.613281 " fill-opacity="1" fill-rule="evenodd"/><path fill="#ffffff" d="M 172.898438 241.796875 C 151.652344 284.738281 122.363281 321.117188 86.417969 281.902344 C 53.570312 246.066406 87.269531 218.90625 128.097656 199.246094 C 85.304688 214.15625 42.25 218.6875 40.179688 170.121094 C 38 118.285156 82.144531 121.882812 126.441406 136.402344 C 86.351562 116.824219 54.007812 89.90625 86.417969 54.546875 C 123.34375 14.242188 153.246094 53.761719 174.621094 98.210938 C 158.132812 51.582031 151.066406 2.253906 205.832031 4.566406 C 254.121094 6.613281 249.933594 49.121094 235.253906 91.625 C 254.972656 51.605469 281.996094 19.34375 317.285156 51.84375 C 355.105469 86.679688 322.277344 115.082031 281.1875 136.007812 C 325.070312 121.816406 368.386719 118.765625 366.207031 170.121094 C 364.175781 218.035156 322.257812 214.265625 280.054688 199.855469 C 321.667969 220.824219 355.476562 249.425781 317.304688 284.585938 C 282.867188 316.300781 256.324219 286.371094 236.738281 247.746094 C 250.171875 288.75 252.464844 328.441406 205.832031 330.40625 C 153.027344 332.648438 157.695312 286.851562 172.898438 241.796875 " fill-opacity="1" fill-rule="evenodd"/><path fill="#000000" d="M 203.191406 88.09375 C 247.074219 88.09375 282.648438 123.648438 282.648438 167.484375 C 282.648438 211.34375 247.074219 246.894531 203.191406 246.894531 C 159.332031 246.894531 123.757812 211.34375 123.757812 167.484375 C 123.757812 123.648438 159.332031 88.09375 203.191406 88.09375 " fill-opacity="1" fill-rule="evenodd"/><path fill="#ffcc00" d="M 203.191406 91.910156 C 244.960938 91.910156 278.832031 125.742188 278.832031 167.484375 C 278.832031 209.230469 244.960938 243.082031 203.191406 243.082031 C 161.425781 243.082031 127.574219 209.230469 127.574219 167.484375 C 127.574219 125.742188 161.425781 91.910156 203.191406 91.910156 " fill-opacity="1" fill-rule="evenodd"/><path fill="#000000" d="M 180.726562 127.660156 C 186.789062 127.660156 191.699219 137.140625 191.699219 148.824219 C 191.699219 160.488281 186.789062 169.96875 180.726562 169.96875 C 174.664062 169.96875 169.757812 160.488281 169.757812 148.824219 C 169.757812 137.140625 174.664062 127.660156 180.726562 127.660156 " fill-opacity="1" fill-rule="evenodd"/><path fill="#000000" d="M 223.914062 127.660156 C 229.953125 127.660156 234.882812 137.140625 234.882812 148.824219 C 234.882812 160.488281 229.953125 169.96875 223.914062 169.96875 C 217.847656 169.96875 212.921875 160.488281 212.921875 148.824219 C 212.921875 137.140625 217.847656 127.660156 223.914062 127.660156 " fill-opacity="1" fill-rule="evenodd"/><path fill="#000000" d="M 255.910156 180.453125 C 253.03125 192.203125 246.3125 202.472656 237.171875 209.816406 C 227.859375 217.273438 216.039062 221.742188 203.191406 221.742188 C 190.347656 221.742188 178.546875 217.273438 169.234375 209.816406 C 160.074219 202.472656 153.355469 192.203125 150.476562 180.453125 C 149.582031 180.238281 148.753906 179.824219 148.035156 179.234375 C 146.921875 178.363281 146.136719 177.097656 145.808594 175.679688 C 145.589844 174.679688 146.222656 173.675781 147.226562 173.457031 C 148.230469 173.238281 149.234375 173.894531 149.449219 174.894531 C 149.582031 175.484375 149.910156 175.984375 150.367188 176.355469 C 150.804688 176.707031 151.371094 176.921875 152.003906 176.921875 C 152.613281 176.921875 153.179688 176.707031 153.636719 176.355469 C 154.097656 175.984375 154.425781 175.484375 154.554688 174.894531 C 154.773438 173.894531 155.753906 173.238281 156.757812 173.457031 C 157.761719 173.675781 158.394531 174.679688 158.175781 175.679688 C 157.871094 177.097656 157.0625 178.363281 155.949219 179.234375 C 155.449219 179.648438 154.882812 179.996094 154.25 180.238281 C 157.019531 190.894531 163.191406 200.203125 171.566406 206.917969 C 180.226562 213.871094 191.21875 218.035156 203.191406 218.035156 C 215.1875 218.035156 226.179688 213.871094 234.839844 206.917969 C 243.195312 200.203125 249.367188 190.894531 252.136719 180.238281 C 251.523438 179.996094 250.957031 179.648438 250.433594 179.234375 C 249.34375 178.363281 248.535156 177.097656 248.210938 175.679688 C 247.992188 174.679688 248.644531 173.675781 249.648438 173.457031 C 250.652344 173.238281 251.632812 173.894531 251.851562 174.894531 C 251.984375 175.484375 252.308594 175.984375 252.769531 176.355469 C 253.203125 176.707031 253.773438 176.921875 254.402344 176.921875 C 255.015625 176.921875 255.605469 176.707031 256.039062 176.355469 C 256.496094 175.984375 256.824219 175.484375 256.957031 174.894531 C 257.175781 173.894531 258.15625 173.238281 259.160156 173.457031 C 260.164062 173.675781 260.792969 174.679688 260.578125 175.679688 C 260.269531 177.097656 259.464844 178.363281 258.351562 179.234375 C 257.652344 179.824219 256.824219 180.238281 255.910156 180.453125 " fill-opacity="1" fill-rule="nonzero"/><path fill="#ffffff" d="M 183.367188 132.5 C 184.851562 132.5 186.050781 134.808594 186.050781 137.6875 C 186.050781 140.542969 184.851562 142.851562 183.367188 142.851562 C 181.882812 142.851562 180.683594 140.542969 180.683594 137.6875 C 180.683594 134.808594 181.882812 132.5 183.367188 132.5 " fill-opacity="1" fill-rule="evenodd"/><path fill="#ffffff" d="M 227.25 132.5 C 228.734375 132.5 229.933594 134.808594 229.933594 137.6875 C 229.933594 140.542969 228.734375 142.851562 227.25 142.851562 C 225.765625 142.851562 224.566406 140.542969 224.566406 137.6875 C 224.566406 134.808594 225.765625 132.5 227.25 132.5 " fill-opacity="1" fill-rule="evenodd"/></svg>