<svg xmlns="http://www.w3.org/2000/svg" xmlns:xlink="http://www.w3.org/1999/xlink" width="500" zoomAndPan="magnify" viewBox="0 0 375 374.999991" height="500" preserveAspectRatio="xMidYMid meet" version="1.0"><path fill="#000000" d="M 131.285156 306.410156 L 124.609375 314.730469 C 119.492188 321.109375 114.082031 326.4375 108.351562 330.226562 C 92.832031 340.480469 75.460938 339.894531 56.550781 319.257812 C 39.238281 300.367188 39.574219 283.605469 49.664062 268.910156 C 50.398438 267.835938 51.179688 266.78125 52.023438 265.730469 L 65.015625 249.535156 C 56.589844 250.671875 48.671875 250.777344 41.617188 249.453125 C 24.097656 246.167969 12.03125 234.523438 10.9375 208.917969 C 10.324219 194.070312 13.378906 183.542969 19.128906 176.363281 L 47.304688 141.21875 C 40.230469 128.480469 40.609375 114.265625 53.222656 98.535156 L 83.777344 60.445312 C 84.789062 59.160156 85.90625 57.875 87.085938 56.570312 C 106.519531 35.363281 124.292969 35.28125 140.128906 46.441406 C 141.5 47.410156 142.847656 48.460938 144.195312 49.597656 L 168.03125 19.886719 C 168.160156 19.71875 168.304688 19.550781 168.433594 19.402344 C 168.476562 19.339844 168.515625 19.296875 168.558594 19.234375 C 168.894531 18.855469 169.234375 18.476562 169.589844 18.097656 C 169.613281 18.078125 169.632812 18.054688 169.632812 18.035156 C 176.75 10.539062 188.121094 6.390625 205.242188 7.105469 C 230.683594 8.179688 242.328125 20.117188 245.71875 37.46875 C 247.421875 46.292969 246.875 56.503906 244.855469 67.351562 L 249.804688 61.179688 C 249.910156 61.054688 249.992188 60.929688 250.097656 60.800781 C 250.117188 60.78125 250.160156 60.738281 250.183594 60.71875 C 254.941406 54.84375 260.015625 49.894531 265.429688 46.3125 C 280.042969 36.671875 296.617188 36.605469 315.191406 53.726562 C 335.089844 72.046875 336.25 88.914062 326.980469 104.03125 C 325.886719 105.84375 324.625 107.632812 323.210938 109.378906 L 309.628906 126.332031 C 319.421875 125.003906 328.5625 125.003906 336.4375 126.898438 C 353.683594 131.089844 364.761719 143.851562 363.601562 170.847656 C 363.078125 183.460938 359.875 192.683594 354.652344 199.1875 C 345.429688 210.6875 336.207031 222.183594 326.980469 233.679688 C 333.910156 244.988281 335.003906 257.265625 326.8125 270.382812 C 326.792969 270.425781 326.75 270.46875 326.730469 270.53125 C 326.433594 270.992188 326.117188 271.457031 325.804688 271.941406 C 325.738281 272.046875 325.65625 272.152344 325.570312 272.277344 C 325.296875 272.679688 325.003906 273.097656 324.707031 273.5 C 324.601562 273.648438 324.496094 273.773438 324.414062 273.921875 C 324.097656 274.320312 323.78125 274.742188 323.445312 275.164062 C 323.359375 275.269531 323.253906 275.394531 323.171875 275.519531 C 323.128906 275.5625 323.109375 275.605469 323.085938 275.648438 L 292.53125 313.71875 C 290.320312 316.476562 287.707031 319.257812 284.65625 322.078125 C 266.542969 338.753906 250.328125 339.113281 235.96875 330.164062 C 233.945312 328.921875 231.964844 327.46875 230.050781 325.847656 L 207.875 353.496094 C 201.410156 361.558594 190.816406 366.613281 174.6875 367.289062 C 146.933594 368.46875 134.214844 356.757812 130.421875 338.714844 C 128.464844 329.320312 129.074219 318.226562 131.285156 306.410156 " fill-opacity="1" fill-rule="evenodd"/><path fill="#ffffff" d="M 173.296875 239.933594 C 152.785156 281.417969 124.503906 316.5625 89.800781 278.679688 C 58.085938 244.0625 90.621094 217.824219 130.042969 198.832031 C 88.726562 213.234375 47.15625 217.613281 45.15625 170.699219 C 43.050781 120.625 85.671875 124.097656 128.441406 138.125 C 89.738281 119.214844 58.507812 93.207031 89.800781 59.054688 C 125.453125 20.117188 154.324219 58.296875 174.960938 101.230469 C 159.039062 56.191406 152.21875 8.539062 205.097656 10.769531 C 251.71875 12.75 247.675781 53.808594 233.503906 94.871094 C 252.539062 56.210938 278.632812 25.046875 312.703125 56.441406 C 349.21875 90.09375 317.527344 117.53125 277.851562 137.746094 C 320.222656 124.035156 362.042969 121.089844 359.9375 170.699219 C 357.980469 216.980469 317.507812 213.339844 276.757812 199.421875 C 316.9375 219.675781 349.578125 247.304688 312.726562 281.269531 C 279.472656 311.90625 253.847656 282.996094 234.9375 245.683594 C 247.90625 285.292969 250.117188 323.636719 205.097656 325.53125 C 154.113281 327.699219 158.621094 283.460938 173.296875 239.933594 " fill-opacity="1" fill-rule="evenodd"/><path fill="#000000" d="M 202.546875 91.460938 C 244.917969 91.460938 279.265625 125.804688 279.265625 168.152344 C 279.265625 210.519531 244.917969 244.863281 202.546875 244.863281 C 160.199219 244.863281 125.851562 210.519531 125.851562 168.152344 C 125.851562 125.804688 160.199219 91.460938 202.546875 91.460938 " fill-opacity="1" fill-rule="evenodd"/><path fill="#ffcc00" d="M 202.546875 95.144531 C 242.875 95.144531 275.578125 127.828125 275.578125 168.152344 C 275.578125 208.476562 242.875 241.175781 202.546875 241.175781 C 162.222656 241.175781 129.539062 208.476562 129.539062 168.152344 C 129.539062 127.828125 162.222656 95.144531 202.546875 95.144531 " fill-opacity="1" fill-rule="evenodd"/><path fill="#000000" d="M 180.859375 129.679688 C 186.710938 129.679688 191.449219 138.839844 191.449219 150.125 C 191.449219 161.390625 186.710938 170.550781 180.859375 170.550781 C 175.003906 170.550781 170.265625 161.390625 170.265625 150.125 C 170.265625 138.839844 175.003906 129.679688 180.859375 129.679688 " fill-opacity="1" fill-rule="evenodd"/><path fill="#000000" d="M 222.554688 129.679688 C 228.386719 129.679688 233.144531 138.839844 233.144531 150.125 C 233.144531 161.390625 228.386719 170.550781 222.554688 170.550781 C 216.699219 170.550781 211.941406 161.390625 211.941406 150.125 C 211.941406 138.839844 216.699219 129.679688 222.554688 129.679688 " fill-opacity="1" fill-rule="evenodd"/><path fill="#000000" d="M 253.445312 180.679688 C 250.667969 192.03125 244.179688 201.949219 235.355469 209.042969 C 226.363281 216.246094 214.953125 220.5625 202.546875 220.5625 C 190.144531 220.5625 178.75 216.246094 169.757812 209.042969 C 160.914062 201.949219 154.429688 192.03125 151.648438 180.679688 C 150.785156 180.46875 149.984375 180.070312 149.289062 179.5 C 148.21875 178.660156 147.457031 177.4375 147.144531 176.066406 C 146.933594 175.097656 147.542969 174.132812 148.511719 173.921875 C 149.480469 173.710938 150.449219 174.339844 150.660156 175.308594 C 150.785156 175.878906 151.101562 176.363281 151.542969 176.722656 C 151.964844 177.058594 152.511719 177.269531 153.125 177.269531 C 153.714844 177.269531 154.261719 177.058594 154.703125 176.722656 C 155.144531 176.363281 155.460938 175.878906 155.585938 175.308594 C 155.796875 174.339844 156.746094 173.710938 157.714844 173.921875 C 158.683594 174.132812 159.292969 175.097656 159.082031 176.066406 C 158.789062 177.4375 158.007812 178.660156 156.933594 179.5 C 156.449219 179.902344 155.902344 180.238281 155.292969 180.46875 C 157.96875 190.765625 163.925781 199.757812 172.011719 206.242188 C 180.375 212.960938 190.988281 216.980469 202.546875 216.980469 C 214.128906 216.980469 224.742188 212.960938 233.105469 206.242188 C 241.167969 199.757812 247.128906 190.765625 249.804688 180.46875 C 249.214844 180.238281 248.664062 179.902344 248.160156 179.5 C 247.109375 178.660156 246.328125 177.4375 246.011719 176.066406 C 245.800781 175.097656 246.433594 174.132812 247.402344 173.921875 C 248.371094 173.710938 249.320312 174.339844 249.527344 175.308594 C 249.65625 175.878906 249.972656 176.363281 250.414062 176.722656 C 250.835938 177.058594 251.382812 177.269531 251.992188 177.269531 C 252.582031 177.269531 253.152344 177.058594 253.574219 176.722656 C 254.015625 176.363281 254.332031 175.878906 254.457031 175.308594 C 254.667969 174.339844 255.613281 173.710938 256.582031 173.921875 C 257.550781 174.132812 258.164062 175.097656 257.953125 176.066406 C 257.65625 177.4375 256.878906 178.660156 255.804688 179.5 C 255.128906 180.070312 254.332031 180.46875 253.445312 180.679688 " fill-opacity="1" fill-rule="nonzero"/><path fill="#ffffff" d="M 183.40625 134.355469 C 184.835938 134.355469 185.996094 136.585938 185.996094 139.367188 C 185.996094 142.125 184.835938 144.355469 183.40625 144.355469 C 181.972656 144.355469 180.816406 142.125 180.816406 139.367188 C 180.816406 136.585938 181.972656 134.355469 183.40625 134.355469 " fill-opacity="1" fill-rule="evenodd"/><path fill="#ffffff" d="M 225.773438 134.355469 C 227.207031 134.355469 228.367188 136.585938 228.367188 139.367188 C 228.367188 142.125 227.207031 144.355469 225.773438 144.355469 C 224.34375 144.355469 223.183594 142.125 223.183594 139.367188 C 223.183594 136.585938 224.34375 134.355469 225.773438 134.355469 " fill-opacity="1" fill-rule="evenodd"/></svg>